<?xml version="1.0" encoding="UTF-8" standalone="no"?>
<!DOCTYPE svg PUBLIC "-//W3C//DTD SVG 1.1//EN" "http://www.w3.org/Graphics/SVG/1.1/DTD/svg11.dtd">
<svg width="100%" height="100%" viewBox="0 0 512 512" version="1.1" xmlns="http://www.w3.org/2000/svg" xmlns:xlink="http://www.w3.org/1999/xlink" xml:space="preserve" xmlns:serif="http://www.serif.com/" style="fill-rule:evenodd;clip-rule:evenodd;stroke-linecap:round;stroke-linejoin:round;">
    <path id="_r_9_" d="M512,128L512,384C512,454.645 454.645,512 384,512L128,512C57.355,512 0,454.645 0,384L0,128C0,57.355 57.355,0 128,0L384,0C454.645,0 512,57.355 512,128Z" style="fill:url(#_Linear1);"/>
    <g transform="matrix(1,0,0,1,-119.5,-119.5)">
        <g transform="matrix(14.2778,0,0,14.2778,204.167,204.167)">
            <path d="M21,3.14L21,20.86C21,20.937 20.937,21 20.86,21L3.14,21C3.063,21 3,20.937 3,20.86L3,3.14C3,3.063 3.063,3 3.14,3L20.86,3C20.937,3 21,3.063 21,3.14Z" style="fill:none;stroke:white;stroke-width:2px;"/>
        </g>
        <g transform="matrix(14.2778,0,0,14.2778,204.167,204.167)">
            <path d="M3,9L21,9" style="fill:none;fill-rule:nonzero;stroke:white;stroke-width:2px;"/>
        </g>
        <g transform="matrix(14.2778,0,0,14.2778,204.167,204.167)">
            <path d="M9,21L9,9" style="fill:none;fill-rule:nonzero;stroke:white;stroke-width:2px;"/>
        </g>
    </g>
    <defs>
        <linearGradient id="_Linear1" x1="0" y1="0" x2="1" y2="0" gradientUnits="userSpaceOnUse" gradientTransform="matrix(88.9079,504.222,-504.222,88.9079,0,0)"><stop offset="0" style="stop-color:rgb(221,24,24);stop-opacity:1"/><stop offset="1" style="stop-color:rgb(56,2,2);stop-opacity:1"/></linearGradient>
    </defs>
</svg>
